<svg id="Capa_1" data-name="Capa 1" xmlns="http://www.w3.org/2000/svg" viewBox="0 0 129.15 153.28"><defs><style>.cls-1{fill:#0047ab;}</style></defs><title>escuidoFormosa</title><path class="cls-1" d="M947,426v.41c-4.33,2.51-8.83,4.57-13.94,4.47a45.88,45.88,0,0,1-6.18-.95c.06-.23.1-.47.15-.69l12-2s0-.09,0-.12c-3.62.27-7.25.51-11.1.81,5-3,13.06-3.74,19.12-1.87m-109.81,9.07c5.81,4.15,16.21,4.23,22.51,1.38-5-.33-9.77-.63-14.56-.93a1,1,0,0,0,0-.17c5.06,0,10.12-.06,15.36-.11-5.21-3.25-15.89-3.37-23.32-.17m15.34-9.61L863,435.45c.62-1.23-.14-2.76-1.13-4.17a19.61,19.61,0,0,0-4-4.39c-3.7-2.7-7.64-5.13-11.54-7.72.48,4.32,7,12.68,15.84,16.66L857,430.6c-1.61-1.65-3.2-3.32-4.8-5l.28-.05m19.42,4.68,8.14,10.7a7,7,0,0,0-.48-5.41,14.18,14.18,0,0,0-3.07-4.91c-3-2.68-6.21-4.94-9.37-7.39-.13,5.78,4.7,15.44,12.11,18.45-1.48-2.18-2.7-4-3.91-5.75s-2.46-3.67-3.68-5.51l.27-.17m22,11.52c3,4.7,14.82,5.54,21.45,2.76-6.25-5.49-16.6-7.11-21.32-4.27L907.78,443l-.09.37-6.75-.81-7-.77m-36.08,3.15c5.41,3.38,16.14,3.12,22.1-.67l-14.75.11a1.68,1.68,0,0,0,0-.2c4.83-.47,9.64-1,14.88-1.45-6.27-3-18.06-1.69-22.21,2.22m47.82-22.41c-6.12,1.17-15.45,10.84-17.32,18.38,4.09-4.35,7.83-8.35,11.57-12.34a.75.75,0,0,1,.16.15c-3.4,4.27-6.8,8.56-10.36,13.06,7.3-2.87,15-12.26,15.94-19.25m6.27,9.53c3.7,1.3,7.39,2.61,11.09,3.9a27.61,27.61,0,0,1-5.68-.93c-1.81-.42-3.63-.82-5.83-1.32,4.22,4.86,14.84,7.31,19.52,4.83-1.56-3.83-11.86-9.28-19.1-6.49m-26.71,10.74-60.72-24.41L843.91,334h20.28l21.1-9.07L884,322l-20.5,9H841.33l-20.52,89.28,63.24,25.42,1.22-2.93ZM947,420.29,926.89,331h-22.2l-20.49-9-1.27,2.92L904.05,334h20.26l19.35,84.38L883,442.79l1.22,2.93L947,420.3ZM839.7,398.75a30.49,30.49,0,0,0,4.28-.22c3.84-.61,16.07-2.77,22.94-4A98.34,98.34,0,0,1,878,393.9a.89.89,0,0,0,.9-.92.91.91,0,0,0-.92-.9c-.33,0-8.24.06-11.38.64-6.86,1.28-19.06,3.42-22.9,4-3.32.51-14.11-.2-14.22-.2a.91.91,0,0,0-1,.84.92.92,0,0,0,.85,1c.33,0,5.91.39,10.36.39m-9.11,23.75a.88.88,0,0,0,.34-.08l31.55-12.51a52.27,52.27,0,0,1,6.33-2.42,5.23,5.23,0,0,1,3.35,1.5,1,1,0,0,0,1.31,0,.9.9,0,0,0,0-1.29c-.1-.08-2.38-2.23-4.8-2-1.13.11-5.58,2-6.87,2.56l-31.53,12.51a.89.89,0,0,0-.51,1.17.93.93,0,0,0,.86.58m40-11a1.32,1.32,0,0,0,.28,0,.9.9,0,1,0-.11-1.79c-2,.1-2.25-2.3-2.27-2.56a.92.92,0,0,0-1.84.16c.13,1.48,1.13,4.21,3.94,4.21m25.67,7.42a3.5,3.5,0,0,0,2.42-1,3.19,3.19,0,0,0,.13-4.55l-6.65-6.54a.92.92,0,0,0-1.3,0,.89.89,0,0,0,0,1.28l6.64,6.54a1.4,1.4,0,0,1-.12,2,1.46,1.46,0,0,1-2,.11L890.54,412a.92.92,0,0,0-1.3,0,.89.89,0,0,0,0,1.28l4.82,4.75a3.12,3.12,0,0,0,2.2.89m4.23-2.54a3.48,3.48,0,0,0,2.41-1,3.35,3.35,0,0,0,1-2.38,2.91,2.91,0,0,0-.9-2.15l-6.64-6.55a.93.93,0,0,0-1.31,0,.91.91,0,0,0,0,1.28l6.65,6.54a1.24,1.24,0,0,1,.36.89,1.6,1.6,0,0,1-.48,1.1,1.46,1.46,0,0,1-2,.11l-4.82-4.76a.92.92,0,0,0-1.3,0,.88.88,0,0,0,0,1.28l4.82,4.75a3.12,3.12,0,0,0,2.2.89m-13,4.62a3.11,3.11,0,0,0,2.22-.88,2.86,2.86,0,0,0,.85-1.68.89.89,0,0,0-.77-1,.92.92,0,0,0-1.06.75,1.22,1.22,0,0,1-.34.69,1.34,1.34,0,0,1-1,.35,2.08,2.08,0,0,1-1.29-.61l-1.22-1.22a.92.92,0,0,0-1.3,0,.88.88,0,0,0,0,1.28l1.22,1.2a4,4,0,0,0,2.46,1.15H888m55-4a.91.91,0,0,0,.09-1.81l-33.92-3.46c-5.76-.79-7.44-2.05-9-3.6-.31-.3-.7-.71-1.2-1.18-6.37-6.35-11.1-10.61-13.42-10.8-.49,0-.9,0-1.39,0-.27,0-.57,0-.94,0-1,0-1.68.82-2.31,1.6a6.1,6.1,0,0,1-1.09,1.16c-2,1.07-3.47.78-4,.31a.59.59,0,0,1-.13-.78c.37-.76,1.88-3,2.44-3.84l0-.07c.9-1.71,1.14-1.69,1.91-1.71s1.62,0,2.54,0h3.58l.23,0a4.28,4.28,0,0,1,2.51.65,50.47,50.47,0,0,0,19.45,5.32l.09,0,29.71-3.41a.91.91,0,1,0-.21-1.81L908.39,397a48.28,48.28,0,0,1-18.55-5.08,6,6,0,0,0-3.41-.92H880c-1.64,0-2.38.55-3.51,2.61-.3.45-2.06,3.07-2.55,4a2.39,2.39,0,0,0,.53,2.89c1.11,1,3.47,1.43,6.21-.05l.09-.05a7.33,7.33,0,0,0,1.5-1.56,4.18,4.18,0,0,1,.85-.9c.38,0,.7,0,1,0,.47,0,.8,0,1.19,0,2.1.17,9.73,7.74,12.24,10.25.49.48.9.9,1.21,1.21,2.12,2.06,4.36,3.32,10.13,4.12l34,3.44H943m-66.15-9.43a1.65,1.65,0,0,1,1.26.59,1.6,1.6,0,0,1-.31,2.26l-3,2.4a1.72,1.72,0,0,1-2.33-.22,1.59,1.59,0,0,1-.33-1.17,1.68,1.68,0,0,1,.63-1.1l3.06-2.4a1.72,1.72,0,0,1,1.06-.36M873.7,415a3.57,3.57,0,0,0,2.2-.77l3.06-2.4a3.48,3.48,0,0,0,1.31-2.29,3.31,3.31,0,0,0-.71-2.53,3.57,3.57,0,0,0-4.91-.51l-3.06,2.4a3.51,3.51,0,0,0-1.32,2.3,3.31,3.31,0,0,0,.72,2.52A3.48,3.48,0,0,0,873.7,415M886,411.36a1.83,1.83,0,0,1,1,.34,1.66,1.66,0,0,1,.42,2.33l-3.4,4.59a1.78,1.78,0,0,1-2.38.33,1.67,1.67,0,0,1-.42-2.34l3.39-4.59a1.65,1.65,0,0,1,1.34-.65m-3.28,9.7a3.48,3.48,0,0,0,2.83-1.4l3.4-4.57a3.46,3.46,0,0,0-.82-4.86,3.63,3.63,0,0,0-2.13-.69,3.56,3.56,0,0,0-2.83,1.4l-3.4,4.59a3.44,3.44,0,0,0,.83,4.85,3.6,3.6,0,0,0,2.12.69m.83-13.22a1.88,1.88,0,0,1,1.31.53,1.8,1.8,0,0,1,0,2.56l-5.29,5.19a1.89,1.89,0,0,1-2.6,0,1.78,1.78,0,0,1,0-2.56l5.27-5.2a1.84,1.84,0,0,1,1.3-.53m-5.27,10.63a3.72,3.72,0,0,0,2.61-1.06l5.27-5.19a3.58,3.58,0,0,0,0-5.12,3.73,3.73,0,0,0-5.21,0l-5.29,5.2a3.56,3.56,0,0,0,0,5.11,3.65,3.65,0,0,0,2.6,1.06M892,420.32a3.21,3.21,0,0,0,2.25-.92,3.08,3.08,0,0,0,.9-2.65.93.93,0,0,0-1-.78.89.89,0,0,0-.78,1,1.34,1.34,0,0,1-.38,1.12,1.4,1.4,0,0,1-1.9,0l-1.71-1.72a.93.93,0,0,0-1.31,0,.89.89,0,0,0,0,1.28l1.73,1.7a3.25,3.25,0,0,0,2.25.93h0m30.26,7.36c9.25-.47,14.21-13.49,14.21-13.49-9.31,2-14.21,13.49-14.21,13.49m-81.69-2.15S835.67,414,826.35,412c0,0,5,13,14.22,13.49m-22.72.56c10.12,7.22,22.72,2.14,22.72,2.14-3.27-4.33-22.72-2.14-22.72-2.14m98.57-10.7c-5.44,2.78-8.83,11.22-6.82,17.44,1.68-4,3.3-7.72,4.92-11.49l.23.06c-1.14,3.94-2.29,7.89-3.54,12.17,5.36-3.6,8-13.32,5.22-18.17m6.08-37.66,3.62-1.51-3.62-1.54L921,371.14l-1.56,3.54-3.62,1.54,3.62,1.51,1.56,3.56Zm-8.83-16.08,3.62,1.53,1.55,3.56,1.56-3.56,3.61-1.53-3.61-1.52-1.56-3.55-1.55,3.55Zm-.8-10.59,3.62-1.53L912.88,348l-1.55-3.56L909.77,348l-3.62,1.52,3.62,1.53,1.56,3.56Zm-8.28-9.84L901,339.7l-1.55-3.56-1.56,3.56-3.61,1.52,3.61,1.53,1.56,3.56,1.55-3.56Zm-7.76,28.24a6.73,6.73,0,0,0,3.79-6.54,6.86,6.86,0,0,0-7.26-6.27,7.14,7.14,0,0,0,0-1.39,6.2,6.2,0,0,0-6.69-5.67,6.29,6.29,0,0,0-4.55,2.44,7.65,7.65,0,0,0-5.22-1.59,7.42,7.42,0,0,0-6.92,7.89,7.6,7.6,0,0,0,.51,2.2,6,6,0,0,0,2.57,11.53,26.62,26.62,0,0,0,10.36,1.64,14.9,14.9,0,0,0,2.3,6.17l1.1-.63a14.12,14.12,0,0,1-2.14-5.65c5.23-.37,9.62-2,12.09-4.13m-32.48-28.24,3.62,1.53,1.55,3.56,1.56-3.56,3.62-1.53-3.62-1.52-1.56-3.56L868,339.7Zm-1.56,8.31L859.16,348l-1.56-3.56L856.05,348l-3.61,1.52,3.61,1.53,1.55,3.56,1.56-3.56Zm-7.52,12.12-3.61-1.52-1.56-3.55-1.56,3.55-3.6,1.52,3.6,1.53,1.56,3.56,1.56-3.56Zm-2.11,14.56-3.62-1.54L848,371.13l-1.56,3.54-3.62,1.54,3.62,1.51,1.56,3.56,1.55-3.56ZM878.79,337l3.6,1.53L884,342l1.56-3.56,3.61-1.53-3.61-1.52L884,331.87l-1.56,3.56ZM933.59,383H835.12l10.56-48h18.88l19.51-8,20,9,19.29-.15L933.58,383Zm-74.47-58.19-13.82-3.94-1,3.34,13.82,3.94Zm2.5-4.92L849,313.14l-1.68,3L859.93,323ZM865.1,316l-10.89-9.25-2.32,2.64,10.9,9.23,2.3-2.62Zm4.35-4-8.67-11.3L858,302.8l8.66,11.29,2.82-2.09Zm5-2-6-12.85-3.21,1.46,6,12.84,3.22-1.45Zm5.56-1.84-3.1-13.81-3.45.75,3.1,13.8,3.45-.73ZM882,294v14h4V294Zm9,14.88,3-13.83-3.46-.72-3,13.82,3.45.74Zm5.22,2.07,5.94-12.88L899,296.63l-6,12.88,3.22,1.44Zm4.64,3.12,8.59-11.36-2.82-2.07L898,312l2.83,2.07Zm4.13,4,10.83-9.31-2.32-2.62-10.85,9.3,2.34,2.64Zm2.58,4.89,12.61-6.81-1.71-3.06L905.88,320l1.69,3Zm1.83,5,13.8-4-1-3.34-13.8,4,1,3.34Zm-25.89,39.15c-.88-1.43-3.28-2-4.06-2.54A6.06,6.06,0,0,1,878,362.7v0a8.2,8.2,0,0,0-.37,4.88c-1.55,0-3.4.56-4.35.56a10.4,10.4,0,0,1-3.11-.75s2.42,7.15,10.83,5.07a13.85,13.85,0,0,0,1.9,1.2,2.38,2.38,0,0,0,1.1.2v-.09l0,.09a2.43,2.43,0,0,0,1.07-.35l3.23-11.55a6.08,6.08,0,0,1-1.17,2.12c-.67.64-3,1.55-3.64,3.09m9.05-1.15c-1.08.12-3.31-.15-5.07.05a5.21,5.21,0,0,0-1.25-3.81l-3.72,9.24a17.49,17.49,0,0,0,2-1.17c10,.68,11.5-5.24,11.5-5.24a15.27,15.27,0,0,1-3.42.94" transform="translate(-817.85 -294)"/></svg>