<!-- icon666.com - MILLIONS vector ICONS FREE --><svg viewBox="0 0 512 512" xmlns="http://www.w3.org/2000/svg"><path d="m512 256c0 141.386719-114.613281 256-256 256s-256-114.613281-256-256 114.613281-256 256-256 256 114.613281 256 256zm0 0" fill="#382b73" style="fill: rgb(255, 183, 0);"></path><path d="m477.460938 256c0 122.308594-99.152344 221.460938-221.460938 221.460938s-221.460938-99.152344-221.460938-221.460938 99.152344-221.460938 221.460938-221.460938 221.460938 99.152344 221.460938 221.460938zm0 0" fill="#473080" style="fill: rgb(42, 41, 41);"></path><path d="m437.964844 186.789062h-68.628906c-4.375 0-8.492188 1.800782-11.449219 5.019532l-29.269531 31.453125v-79.503907c0-8.617187-7.007813-15.628906-15.628907-15.628906h-113.847656c-8.621094 0-15.632813 7.011719-15.632813 15.628906v250.210938c0 8.621094 7.011719 15.632812 15.632813 15.632812h113.847656c8.621094 0 15.628907-7.011718 15.628907-15.632812v-79.5l29.269531 31.453125c2.957031 3.152344 7.074219 5.015625 11.449219 5.015625h35.503906v-.0625h33.191406c5.015625 0 9.132812-4.054688 9.132812-9.132812v-145.820313c-.066406-5.015625-4.117187-9.132813-9.199218-9.132813zm0 0" fill="#382b73" style="fill: rgb(255, 183, 0);"></path><path d="m183.445312 223.261719-29.265624-31.453125c-2.960938-3.152344-7.074219-5.019532-11.449219-5.019532h-68.632813c-5.015625 0-9.132812 4.054688-9.132812 9.132813v145.820313c0 5.015624 4.050781 9.132812 9.132812 9.132812h33.191406v.0625h35.503907c4.375 0 8.492187-1.800781 11.449219-5.015625l29.265624-31.453125v-91.207031zm0 0" fill="#382b73" style="fill: rgb(255, 183, 0);"></path><path d="m312.925781 396.734375h-113.851562c-8.617188 0-15.628907-7.007813-15.628907-15.628906v-250.210938c0-8.621093 7.011719-15.628906 15.628907-15.628906h113.851562c8.617188 0 15.628907 7.007813 15.628907 15.628906v250.210938c0 8.621093-7.011719 15.628906-15.628907 15.628906zm0 0" fill="#1caee4" style="fill: rgb(255, 208, 0);"></path><path d="m312.925781 115.265625h-113.851562c-8.617188 0-15.628907 7.007813-15.628907 15.628906v8.746094c0-8.617187 7.011719-15.628906 15.628907-15.628906h113.851562c8.617188 0 15.628907 7.011719 15.628907 15.628906v-8.746094c0-8.621093-7.011719-15.628906-15.628907-15.628906zm0 0" fill="#27c1e6" style="fill: rgb(68, 67, 66);"></path><path d="m199.074219 396.734375h113.851562c8.617188 0 15.628907-7.007813 15.628907-15.628906v-8.746094c0 8.617187-7.011719 15.628906-15.628907 15.628906h-113.851562c-8.617188 0-15.628907-7.011719-15.628907-15.628906v8.746094c0 8.621093 7.011719 15.628906 15.628907 15.628906zm0 0" fill="#009add" style="fill: rgb(68, 67, 66);"></path><path d="m299.160156 167.171875h-86.320312c-3.472656 0-6.238282-2.832031-6.238282-6.238281 0-3.472656 2.828126-6.238282 6.238282-6.238282h86.320312c3.472656 0 6.238282 2.828126 6.238282 6.238282 0 3.40625-2.765626 6.238281-6.238282 6.238281zm0 0" fill="#009add" style="fill: rgb(68, 67, 66);"></path><path d="m299.160156 160.933594h-86.320312c-3.472656 0-6.238282-2.832032-6.238282-6.238282 0-3.476562 2.828126-6.242187 6.238282-6.242187h86.320312c3.472656 0 6.238282 2.832031 6.238282 6.242187 0 3.40625-2.765626 6.238282-6.238282 6.238282zm0 0" fill="#fff" style="fill: rgb(255, 255, 255);"></path><path d="m299.160156 154.695312h-86.320312c-2.316406 0-4.308594-1.289062-5.402344-3.152343-.515625.898437-.835938 1.992187-.835938 3.152343 0 3.472657 2.828126 6.238282 6.238282 6.238282h86.320312c3.472656 0 6.238282-2.832032 6.238282-6.238282 0-1.160156-.320313-2.1875-.835938-3.152343-1.09375 1.863281-3.085938 3.152343-5.402344 3.152343zm0 0" fill="#e6e7e8" style="fill: rgb(255, 255, 255);"></path><g fill="#009add"><path d="m299.160156 213.484375h-86.320312c-3.472656 0-6.238282-2.832031-6.238282-6.238281 0-3.476563 2.828126-6.242188 6.238282-6.242188h86.320312c3.472656 0 6.238282 2.832032 6.238282 6.242188 0 3.40625-2.765626 6.238281-6.238282 6.238281zm0 0" fill="#009add" style="fill: rgb(68, 67, 66);"></path><path d="m299.160156 259.730469h-86.320312c-3.472656 0-6.238282-2.828125-6.238282-6.238281 0-3.472657 2.828126-6.238282 6.238282-6.238282h86.320312c3.472656 0 6.238282 2.828125 6.238282 6.238282 0 3.472656-2.765626 6.238281-6.238282 6.238281zm0 0" fill="#009add" style="fill: rgb(68, 67, 66);"></path><path d="m299.160156 306.042969h-86.320312c-3.472656 0-6.238282-2.832031-6.238282-6.238281 0-3.476563 2.828126-6.242188 6.238282-6.242188h86.320312c3.472656 0 6.238282 2.832031 6.238282 6.242188 0 3.40625-2.765626 6.238281-6.238282 6.238281zm0 0" fill="#009add" style="fill: rgb(68, 67, 66);"></path><path d="m235.289062 357.242188c0 6.75-5.472656 12.222656-12.222656 12.222656s-12.21875-5.472656-12.21875-12.222656 5.46875-12.222657 12.21875-12.222657 12.222656 5.472657 12.222656 12.222657zm0 0" fill="#009add" style="fill: rgb(68, 67, 66);"></path><path d="m268.222656 357.242188c0 6.75-5.472656 12.222656-12.222656 12.222656s-12.222656-5.472656-12.222656-12.222656 5.472656-12.222657 12.222656-12.222657 12.222656 5.472657 12.222656 12.222657zm0 0" fill="#009add" style="fill: rgb(68, 67, 66);"></path><path d="m301.152344 357.242188c0 6.75-5.46875 12.222656-12.21875 12.222656s-12.222656-5.472656-12.222656-12.222656 5.472656-12.222657 12.222656-12.222657 12.21875 5.472657 12.21875 12.222657zm0 0" fill="#009add" style="fill: rgb(68, 67, 66);"></path></g><path d="m299.160156 207.179688h-86.320312c-3.472656 0-6.238282-2.828126-6.238282-6.238282 0-3.472656 2.828126-6.238281 6.238282-6.238281h86.320312c3.472656 0 6.238282 2.828125 6.238282 6.238281 0 3.472656-2.765626 6.238282-6.238282 6.238282zm0 0" fill="#fff" style="fill: rgb(255, 255, 255);"></path><path d="m299.160156 200.941406h-86.320312c-2.316406 0-4.308594-1.289062-5.402344-3.152344-.515625.898438-.835938 1.992188-.835938 3.152344 0 3.472656 2.828126 6.238282 6.238282 6.238282h86.320312c3.472656 0 6.238282-2.828126 6.238282-6.238282 0-1.160156-.320313-2.1875-.835938-3.152344-1.09375 1.929688-3.085938 3.152344-5.402344 3.152344zm0 0" fill="#e6e7e8" style="fill: rgb(255, 255, 255);"></path><path d="m299.160156 253.492188h-86.320312c-3.472656 0-6.238282-2.832032-6.238282-6.238282 0-3.476562 2.828126-6.242187 6.238282-6.242187h86.320312c3.472656 0 6.238282 2.832031 6.238282 6.242187 0 3.472656-2.765626 6.238282-6.238282 6.238282zm0 0" fill="#fff" style="fill: rgb(255, 255, 255);"></path><path d="m299.160156 247.253906h-86.320312c-2.316406 0-4.308594-1.289062-5.402344-3.152344-.515625.898438-.835938 1.992188-.835938 3.152344 0 3.472656 2.828126 6.238282 6.238282 6.238282h86.320312c3.472656 0 6.238282-2.832032 6.238282-6.238282 0-1.160156-.320313-2.1875-.835938-3.152344-1.09375 1.863282-3.085938 3.152344-5.402344 3.152344zm0 0" fill="#e6e7e8" style="fill: rgb(255, 255, 255);"></path><path d="m299.160156 299.804688h-86.320312c-3.472656 0-6.238282-2.832032-6.238282-6.242188 0-3.472656 2.828126-6.238281 6.238282-6.238281h86.320312c3.472656 0 6.238282 2.832031 6.238282 6.238281 0 3.410156-2.765626 6.242188-6.238282 6.242188zm0 0" fill="#fff" style="fill: rgb(255, 255, 255);"></path><path d="m299.160156 293.5625h-86.320312c-2.316406 0-4.308594-1.285156-5.402344-3.152344-.515625.902344-.835938 1.996094-.835938 3.152344 0 3.476562 2.828126 6.242188 6.238282 6.242188h86.320312c3.472656 0 6.238282-2.832032 6.238282-6.242188 0-1.15625-.320313-2.1875-.835938-3.152344-1.09375 1.867188-3.085938 3.152344-5.402344 3.152344zm0 0" fill="#e6e7e8" style="fill: rgb(255, 255, 255);"></path><path d="m235.289062 350.9375c0 6.75-5.472656 12.222656-12.222656 12.222656s-12.21875-5.472656-12.21875-12.222656 5.46875-12.21875 12.21875-12.21875 12.222656 5.46875 12.222656 12.21875zm0 0" fill="#e6e7e8" style="fill: rgb(255, 255, 255);"></path><path d="m268.222656 350.9375c0 6.75-5.472656 12.222656-12.222656 12.222656s-12.222656-5.472656-12.222656-12.222656 5.472656-12.21875 12.222656-12.21875 12.222656 5.46875 12.222656 12.21875zm0 0" fill="#e6e7e8" style="fill: rgb(255, 255, 255);"></path><path d="m301.152344 350.9375c0 6.75-5.46875 12.222656-12.21875 12.222656s-12.222656-5.472656-12.222656-12.222656 5.472656-12.21875 12.222656-12.21875 12.21875 5.46875 12.21875 12.21875zm0 0" fill="#e6e7e8" style="fill: rgb(255, 255, 255);"></path><path d="m297.488281 350.9375c0 4.726562-3.832031 8.554688-8.554687 8.554688-4.726563 0-8.554688-3.828126-8.554688-8.554688 0-4.722656 3.828125-8.554688 8.554688-8.554688 4.722656 0 8.554687 3.832032 8.554687 8.554688zm0 0" fill="#fff" style="fill: rgb(255, 255, 255);"></path><path d="m264.554688 350.9375c0 4.726562-3.828126 8.554688-8.554688 8.554688s-8.554688-3.828126-8.554688-8.554688c0-4.722656 3.828126-8.554688 8.554688-8.554688s8.554688 3.832032 8.554688 8.554688zm0 0" fill="#fff" style="fill: rgb(255, 255, 255);"></path><path d="m231.621094 350.9375c0 4.726562-3.828125 8.554688-8.554688 8.554688-4.722656 0-8.554687-3.828126-8.554687-8.554688 0-4.722656 3.832031-8.554688 8.554687-8.554688 4.726563 0 8.554688 3.832032 8.554688 8.554688zm0 0" fill="#fff" style="fill: rgb(255, 255, 255);"></path><path d="m357.820312 178.941406-29.265624 31.453125v91.144531l29.265624 31.453126c2.960938 3.152343 7.074219 5.019531 11.449219 5.019531h35.507813v-164.085938h-35.507813c-4.308593 0-8.488281 1.800781-11.449219 5.015625zm0 0" fill="#e7ad27" style="fill: rgb(255, 183, 0);"></path><path d="m437.964844 338.011719h-66.316406c-5.015626 0-9.132813-4.054688-9.132813-9.136719v-145.816406c0-5.015625 4.054687-9.132813 9.132813-9.132813h66.382812c5.015625 0 9.132812 4.050781 9.132812 9.132813v145.816406c-.066406 5.082031-4.117187 9.136719-9.199218 9.136719zm0 0" fill="#fede3a" style="fill: rgb(255, 208, 0);"></path><path d="m437.964844 173.925781h-66.316406c-5.015626 0-9.132813 4.050781-9.132813 9.132813v5.082031c0-5.015625 4.054687-9.132813 9.132813-9.132813h66.382812c5.015625 0 9.132812 4.050782 9.132812 9.132813v-5.082031c-.066406-5.015625-4.117187-9.132813-9.199218-9.132813zm0 0" fill="#fff335"></path><path d="m371.648438 338.011719h66.382812c5.015625 0 9.132812-4.054688 9.132812-9.136719v-5.078125c0 5.015625-4.050781 9.132813-9.132812 9.132813h-66.382812c-5.015626 0-9.132813-4.054688-9.132813-9.132813v5.078125c0 5.082031 4.054687 9.136719 9.132813 9.136719zm0 0" fill="#f7cb15" style="fill: rgb(68, 67, 66);"></path><path d="m429.988281 204.222656h-50.296875c-1.996094 0-3.667968-1.609375-3.667968-3.667968 0-1.992188 1.609374-3.667969 3.667968-3.667969h50.296875c1.996094 0 3.667969 1.609375 3.667969 3.667969-.0625 1.992187-1.671875 3.667968-3.667969 3.667968zm0 0" fill="#f7cb15" style="fill: rgb(68, 67, 66);"></path><path d="m429.988281 200.554688h-50.296875c-1.996094 0-3.667968-1.609376-3.667968-3.667969 0-1.992188 1.609374-3.664063 3.667968-3.664063h50.296875c1.996094 0 3.667969 1.609375 3.667969 3.664063-.0625 2.058593-1.671875 3.667969-3.667969 3.667969zm0 0" fill="#fff" style="fill: rgb(255, 255, 255);"></path><path d="m429.988281 196.886719h-50.296875c-1.351562 0-2.507812-.707031-3.152344-1.800781-.320312.515624-.515624 1.160156-.515624 1.800781 0 1.996093 1.609374 3.667969 3.667968 3.667969h50.296875c1.996094 0 3.667969-1.609376 3.667969-3.667969 0-.640625-.191406-1.285157-.515625-1.800781-.640625 1.09375-1.800781 1.800781-3.152344 1.800781zm0 0" fill="#e6e7e8" style="fill: rgb(255, 255, 255);"></path><path d="m429.988281 231.171875h-50.296875c-1.996094 0-3.667968-1.609375-3.667968-3.667969 0-1.992187 1.609374-3.664062 3.667968-3.664062h50.296875c1.996094 0 3.667969 1.605468 3.667969 3.664062-.0625 2.058594-1.671875 3.667969-3.667969 3.667969zm0 0" fill="#f7cb15" style="fill: rgb(68, 67, 66);"></path><path d="m429.988281 258.1875h-50.296875c-1.996094 0-3.667968-1.609375-3.667968-3.667969 0-1.992187 1.609374-3.664062 3.667968-3.664062h50.296875c1.996094 0 3.667969 1.605469 3.667969 3.664062-.0625 1.996094-1.671875 3.667969-3.667969 3.667969zm0 0" fill="#f7cb15" style="fill: rgb(68, 67, 66);"></path><path d="m429.988281 285.136719h-50.296875c-1.996094 0-3.667968-1.605469-3.667968-3.664063 0-1.996094 1.609374-3.667968 3.667968-3.667968h50.296875c1.996094 0 3.667969 1.609374 3.667969 3.667968-.0625 2.058594-1.671875 3.664063-3.667969 3.664063zm0 0" fill="#f7cb15" style="fill: rgb(68, 67, 66);"></path><path d="m392.746094 314.984375c0 3.941406-3.195313 7.136719-7.136719 7.136719-3.945313 0-7.140625-3.195313-7.140625-7.136719 0-3.945313 3.195312-7.140625 7.140625-7.140625 3.941406 0 7.136719 3.195312 7.136719 7.140625zm0 0" fill="#f7cb15" style="fill: rgb(68, 67, 66);"></path><path d="m411.914062 314.984375c0 3.941406-3.195312 7.136719-7.136718 7.136719-3.945313 0-7.140625-3.195313-7.140625-7.136719 0-3.945313 3.195312-7.140625 7.140625-7.140625 3.941406 0 7.136718 3.195312 7.136718 7.140625zm0 0" fill="#f7cb15" style="fill: rgb(68, 67, 66);"></path><path d="m431.148438 314.984375c0 3.941406-3.195313 7.136719-7.140626 7.136719-3.941406 0-7.140624-3.195313-7.140624-7.136719 0-3.945313 3.199218-7.140625 7.140624-7.140625 3.945313 0 7.140626 3.195312 7.140626 7.140625zm0 0" fill="#f7cb15" style="fill: rgb(68, 67, 66);"></path><path d="m429.988281 227.570312h-50.296875c-1.996094 0-3.667968-1.609374-3.667968-3.667968 0-1.992188 1.609374-3.664063 3.667968-3.664063h50.296875c1.996094 0 3.667969 1.605469 3.667969 3.664063-.0625 1.996094-1.671875 3.667968-3.667969 3.667968zm0 0" fill="#fff" style="fill: rgb(255, 255, 255);"></path><path d="m429.988281 223.902344h-50.296875c-1.351562 0-2.507812-.707032-3.152344-1.800782-.320312.515626-.515624 1.160157-.515624 1.800782 0 1.996094 1.609374 3.667968 3.667968 3.667968h50.296875c1.996094 0 3.667969-1.609374 3.667969-3.667968 0-.640625-.191406-1.285156-.515625-1.800782-.640625 1.03125-1.800781 1.800782-3.152344 1.800782zm0 0" fill="#e6e7e8" style="fill: rgb(255, 255, 255);"></path><path d="m429.988281 254.519531h-50.296875c-1.996094 0-3.667968-1.605469-3.667968-3.664062 0-1.996094 1.609374-3.667969 3.667968-3.667969h50.296875c1.996094 0 3.667969 1.609375 3.667969 3.667969-.0625 2.058593-1.671875 3.664062-3.667969 3.664062zm0 0" fill="#fff" style="fill: rgb(255, 255, 255);"></path><path d="m429.988281 250.855469h-50.296875c-1.351562 0-2.507812-.707031-3.152344-1.800781-.320312.511718-.515624 1.15625-.515624 1.800781 0 1.992187 1.609374 3.664062 3.667968 3.664062h50.296875c1.996094 0 3.667969-1.605469 3.667969-3.664062 0-.644531-.191406-1.289063-.515625-1.800781-.640625 1.09375-1.800781 1.800781-3.152344 1.800781zm0 0" fill="#e6e7e8" style="fill: rgb(255, 255, 255);"></path><path d="m429.988281 281.472656h-50.296875c-1.996094 0-3.667968-1.609375-3.667968-3.667968 0-1.992188 1.609374-3.664063 3.667968-3.664063h50.296875c1.996094 0 3.667969 1.605469 3.667969 3.664063-.0625 2.058593-1.671875 3.667968-3.667969 3.667968zm0 0" fill="#fff" style="fill: rgb(255, 255, 255);"></path><path d="m429.988281 277.871094h-50.296875c-1.351562 0-2.507812-.710938-3.152344-1.804688-.320312.515625-.515624 1.160156-.515624 1.804688 0 1.992187 1.609374 3.664062 3.667968 3.664062h50.296875c1.996094 0 3.667969-1.609375 3.667969-3.664062 0-.644532-.191406-1.289063-.515625-1.804688-.640625 1.03125-1.800781 1.804688-3.152344 1.804688zm0 0" fill="#e6e7e8" style="fill: rgb(255, 255, 255);"></path><path d="m392.746094 311.316406c0 3.941406-3.195313 7.140625-7.136719 7.140625-3.945313 0-7.140625-3.199219-7.140625-7.140625s3.195312-7.140625 7.140625-7.140625c3.941406 0 7.136719 3.199219 7.136719 7.140625zm0 0" fill="#e6e7e8" style="fill: rgb(255, 255, 255);"></path><path d="m411.914062 311.316406c0 3.941406-3.195312 7.140625-7.136718 7.140625-3.945313 0-7.140625-3.199219-7.140625-7.140625s3.195312-7.140625 7.140625-7.140625c3.941406 0 7.136718 3.199219 7.136718 7.140625zm0 0" fill="#e6e7e8" style="fill: rgb(255, 255, 255);"></path><path d="m431.148438 311.316406c0 3.941406-3.195313 7.140625-7.140626 7.140625-3.941406 0-7.140624-3.199219-7.140624-7.140625s3.199218-7.140625 7.140624-7.140625c3.945313 0 7.140626 3.199219 7.140626 7.140625zm0 0" fill="#e6e7e8" style="fill: rgb(255, 255, 255);"></path><path d="m428.960938 311.316406c0 2.734375-2.21875 4.953125-4.953126 4.953125-2.734374 0-4.953124-2.21875-4.953124-4.953125s2.21875-4.953125 4.953124-4.953125c2.734376 0 4.953126 2.21875 4.953126 4.953125zm0 0" fill="#fff" style="fill: rgb(255, 255, 255);"></path><path d="m409.730469 311.316406c0 2.734375-2.21875 4.953125-4.953125 4.953125-2.738282 0-4.953125-2.21875-4.953125-4.953125s2.214843-4.953125 4.953125-4.953125c2.734375 0 4.953125 2.21875 4.953125 4.953125zm0 0" fill="#fff" style="fill: rgb(255, 255, 255);"></path><path d="m390.5625 311.316406c0 2.734375-2.21875 4.953125-4.953125 4.953125-2.738281 0-4.953125-2.21875-4.953125-4.953125s2.214844-4.953125 4.953125-4.953125c2.734375 0 4.953125 2.21875 4.953125 4.953125zm0 0" fill="#fff" style="fill: rgb(255, 255, 255);"></path><path d="m154.179688 178.941406 29.265624 31.453125v91.144531l-29.265624 31.453126c-2.960938 3.152343-7.074219 5.019531-11.449219 5.019531h-35.507813v-164.085938h35.507813c4.308593 0 8.488281 1.800781 11.449219 5.015625zm0 0" fill="#a72973" style="fill: rgb(255, 183, 0);"></path><path d="m74.035156 338.011719h66.378906c5.015626 0 9.132813-4.054688 9.132813-9.136719v-145.816406c0-5.015625-4.050781-9.132813-9.132813-9.132813h-66.378906c-5.019531 0-9.132812 4.050781-9.132812 9.132813v145.816406c0 5.082031 4.050781 9.136719 9.132812 9.136719zm0 0" fill="#ef5a9d" style="fill: rgb(255, 208, 0);"></path><path d="m74.035156 173.925781h66.378906c5.015626 0 9.132813 4.050781 9.132813 9.132813v5.082031c0-5.015625-4.050781-9.132813-9.132813-9.132813h-66.378906c-5.019531 0-9.132812 4.050782-9.132812 9.132813v-5.082031c0-5.015625 4.050781-9.132813 9.132812-9.132813zm0 0" fill="#f06ea9" style="fill: rgb(68, 67, 66);"></path><path d="m140.351562 338.011719h-66.316406c-5.019531 0-9.132812-4.054688-9.132812-9.136719v-5.078125c0 5.015625 4.050781 9.132813 9.132812 9.132813h66.378906c5.015626 0 9.132813-4.054688 9.132813-9.132813v5.078125c-.0625 5.082031-4.117187 9.136719-9.195313 9.136719zm0 0" fill="#e43d91" style="fill: rgb(68, 67, 66);"></path><path d="m82.011719 204.222656h50.296875c1.996094 0 3.667968-1.609375 3.667968-3.667968 0-1.992188-1.609374-3.667969-3.667968-3.667969h-50.296875c-1.996094 0-3.667969 1.609375-3.667969 3.667969.0625 1.992187 1.671875 3.667968 3.667969 3.667968zm0 0" fill="#e43d91" style="fill: rgb(68, 67, 66);"></path><path d="m82.011719 200.554688h50.296875c1.996094 0 3.667968-1.609376 3.667968-3.667969 0-1.992188-1.609374-3.664063-3.667968-3.664063h-50.296875c-1.996094 0-3.667969 1.609375-3.667969 3.664063.0625 2.058593 1.671875 3.667969 3.667969 3.667969zm0 0" fill="#fff" style="fill: rgb(255, 255, 255);"></path><path d="m82.011719 196.886719h50.296875c1.351562 0 2.507812-.707031 3.152344-1.800781.320312.515624.515624 1.160156.515624 1.800781 0 1.996093-1.609374 3.667969-3.667968 3.667969h-50.296875c-1.996094 0-3.667969-1.609376-3.667969-3.667969 0-.640625.191406-1.285157.515625-1.800781.640625 1.09375 1.800781 1.800781 3.152344 1.800781zm0 0" fill="#e6e7e8" style="fill: rgb(255, 255, 255);"></path><path d="m82.011719 231.171875h50.296875c1.996094 0 3.667968-1.609375 3.667968-3.667969 0-1.992187-1.609374-3.664062-3.667968-3.664062h-50.296875c-1.996094 0-3.667969 1.605468-3.667969 3.664062.0625 2.058594 1.671875 3.667969 3.667969 3.667969zm0 0" fill="#e43d91" style="fill: rgb(68, 67, 66);"></path><path d="m82.011719 258.1875h50.296875c1.996094 0 3.667968-1.609375 3.667968-3.667969 0-1.992187-1.609374-3.664062-3.667968-3.664062h-50.296875c-1.996094 0-3.667969 1.605469-3.667969 3.664062.0625 1.996094 1.671875 3.667969 3.667969 3.667969zm0 0" fill="#e43d91" style="fill: rgb(68, 67, 66);"></path><path d="m82.011719 285.136719h50.296875c1.996094 0 3.667968-1.605469 3.667968-3.664063 0-1.996094-1.609374-3.667968-3.667968-3.667968h-50.296875c-1.996094 0-3.667969 1.609374-3.667969 3.667968.0625 2.058594 1.671875 3.664063 3.667969 3.664063zm0 0" fill="#e43d91" style="fill: rgb(68, 67, 66);"></path><path d="m133.53125 314.984375c0 3.941406-3.195312 7.136719-7.140625 7.136719-3.941406 0-7.136719-3.195313-7.136719-7.136719 0-3.945313 3.195313-7.140625 7.136719-7.140625 3.945313 0 7.140625 3.195312 7.140625 7.140625zm0 0" fill="#e43d91" style="fill: rgb(68, 67, 66);"></path><path d="m114.363281 314.984375c0 3.941406-3.195312 7.136719-7.140625 7.136719-3.941406 0-7.136718-3.195313-7.136718-7.136719 0-3.945313 3.195312-7.140625 7.136718-7.140625 3.945313 0 7.140625 3.195312 7.140625 7.140625zm0 0" fill="#e43d91" style="fill: rgb(68, 67, 66);"></path><path d="m95.132812 314.984375c0 3.941406-3.199218 7.136719-7.140624 7.136719-3.945313 0-7.140626-3.195313-7.140626-7.136719 0-3.945313 3.195313-7.140625 7.140626-7.140625 3.941406 0 7.140624 3.195312 7.140624 7.140625zm0 0" fill="#e43d91" style="fill: rgb(68, 67, 66);"></path><path d="m82.011719 227.570312h50.296875c1.996094 0 3.667968-1.609374 3.667968-3.667968 0-1.992188-1.609374-3.664063-3.667968-3.664063h-50.296875c-1.996094 0-3.667969 1.605469-3.667969 3.664063.0625 1.996094 1.671875 3.667968 3.667969 3.667968zm0 0" fill="#fff" style="fill: rgb(255, 255, 255);"></path><path d="m82.011719 223.902344h50.296875c1.351562 0 2.507812-.707032 3.152344-1.800782.320312.515626.515624 1.160157.515624 1.800782 0 1.996094-1.609374 3.667968-3.667968 3.667968h-50.296875c-1.996094 0-3.667969-1.609374-3.667969-3.667968 0-.640625.191406-1.285156.515625-1.800782.640625 1.03125 1.800781 1.800782 3.152344 1.800782zm0 0" fill="#e6e7e8" style="fill: rgb(255, 255, 255);"></path><path d="m82.011719 254.519531h50.296875c1.996094 0 3.667968-1.605469 3.667968-3.664062 0-1.996094-1.609374-3.667969-3.667968-3.667969h-50.296875c-1.996094 0-3.667969 1.609375-3.667969 3.667969.0625 2.058593 1.671875 3.664062 3.667969 3.664062zm0 0" fill="#fff" style="fill: rgb(255, 255, 255);"></path><path d="m82.011719 250.855469h50.296875c1.351562 0 2.507812-.707031 3.152344-1.800781.320312.511718.515624 1.15625.515624 1.800781 0 1.992187-1.609374 3.664062-3.667968 3.664062h-50.296875c-1.996094 0-3.667969-1.605469-3.667969-3.664062 0-.644531.191406-1.289063.515625-1.800781.640625 1.09375 1.800781 1.800781 3.152344 1.800781zm0 0" fill="#e6e7e8" style="fill: rgb(255, 255, 255);"></path><path d="m82.011719 281.472656h50.296875c1.996094 0 3.667968-1.609375 3.667968-3.667968 0-1.992188-1.609374-3.664063-3.667968-3.664063h-50.296875c-1.996094 0-3.667969 1.605469-3.667969 3.664063.0625 2.058593 1.671875 3.667968 3.667969 3.667968zm0 0" fill="#fff" style="fill: rgb(255, 255, 255);"></path><path d="m82.011719 277.871094h50.296875c1.351562 0 2.507812-.710938 3.152344-1.804688.320312.515625.515624 1.160156.515624 1.804688 0 1.992187-1.609374 3.664062-3.667968 3.664062h-50.296875c-1.996094 0-3.667969-1.609375-3.667969-3.664062 0-.644532.191406-1.289063.515625-1.804688.640625 1.03125 1.800781 1.804688 3.152344 1.804688zm0 0" fill="#e6e7e8" style="fill: rgb(255, 255, 255);"></path><path d="m133.53125 311.316406c0 3.941406-3.195312 7.140625-7.140625 7.140625-3.941406 0-7.136719-3.199219-7.136719-7.140625s3.195313-7.140625 7.136719-7.140625c3.945313 0 7.140625 3.199219 7.140625 7.140625zm0 0" fill="#e6e7e8" style="fill: rgb(255, 255, 255);"></path><path d="m114.363281 311.316406c0 3.941406-3.195312 7.140625-7.140625 7.140625-3.941406 0-7.136718-3.199219-7.136718-7.140625s3.195312-7.140625 7.136718-7.140625c3.945313 0 7.140625 3.199219 7.140625 7.140625zm0 0" fill="#e6e7e8" style="fill: rgb(255, 255, 255);"></path><path d="m95.132812 311.316406c0 3.941406-3.199218 7.140625-7.140624 7.140625-3.945313 0-7.140626-3.199219-7.140626-7.140625s3.195313-7.140625 7.140626-7.140625c3.941406 0 7.140624 3.199219 7.140624 7.140625zm0 0" fill="#e6e7e8" style="fill: rgb(255, 255, 255);"></path><path d="m92.945312 311.316406c0 2.734375-2.21875 4.953125-4.953124 4.953125-2.734376 0-4.953126-2.21875-4.953126-4.953125s2.21875-4.953125 4.953126-4.953125c2.734374 0 4.953124 2.21875 4.953124 4.953125zm0 0" fill="#fff" style="fill: rgb(255, 255, 255);"></path><path d="m112.175781 311.316406c0 2.734375-2.214843 4.953125-4.953125 4.953125-2.734375 0-4.953125-2.21875-4.953125-4.953125s2.21875-4.953125 4.953125-4.953125c2.738282 0 4.953125 2.21875 4.953125 4.953125zm0 0" fill="#fff" style="fill: rgb(255, 255, 255);"></path><path d="m131.34375 311.316406c0 2.734375-2.214844 4.953125-4.953125 4.953125-2.734375 0-4.953125-2.21875-4.953125-4.953125s2.21875-4.953125 4.953125-4.953125c2.738281 0 4.953125 2.21875 4.953125 4.953125zm0 0" fill="#fff" style="fill: rgb(255, 255, 255);"></path></svg>